<mxfile host="app.diagrams.net" modified="2021-08-05T12:22:36.444Z" agent="5.0 (Windows NT 10.0; Win64; x64) AppleWebKit/537.36 (KHTML, like Gecko) Chrome/92.0.4515.107 Safari/537.36" etag="oPlrrhifxXQHbLjc4AOM" version="14.9.4" type="github">
  <diagram id="R2lEEEUBdFMjLlhIrx00" name="Page-1">
    <mxGraphModel dx="1102" dy="582" grid="1" gridSize="10" guides="1" tooltips="1" connect="1" arrows="1" fold="1" page="1" pageScale="1" pageWidth="850" pageHeight="1100" math="0" shadow="0" extFonts="Permanent Marker^https://fonts.googleapis.com/css?family=Permanent+Marker">
      <root>
        <mxCell id="0" />
        <mxCell id="1" parent="0" />
        <mxCell id="C-vyLk0tnHw3VtMMgP7b-2" value="Modulo" style="shape=table;startSize=30;container=1;collapsible=1;childLayout=tableLayout;fixedRows=1;rowLines=0;fontStyle=1;align=center;resizeLast=1;" parent="1" vertex="1">
          <mxGeometry x="540" y="230" width="250" height="155" as="geometry" />
        </mxCell>
        <mxCell id="C-vyLk0tnHw3VtMMgP7b-3" value="" style="shape=partialRectangle;collapsible=0;dropTarget=0;pointerEvents=0;fillColor=none;points=[[0,0.5],[1,0.5]];portConstraint=eastwest;top=0;left=0;right=0;bottom=1;" parent="C-vyLk0tnHw3VtMMgP7b-2" vertex="1">
          <mxGeometry y="30" width="250" height="30" as="geometry" />
        </mxCell>
        <mxCell id="C-vyLk0tnHw3VtMMgP7b-4" value="PK" style="shape=partialRectangle;overflow=hidden;connectable=0;fillColor=none;top=0;left=0;bottom=0;right=0;fontStyle=1;" parent="C-vyLk0tnHw3VtMMgP7b-3" vertex="1">
          <mxGeometry width="30" height="30" as="geometry" />
        </mxCell>
        <mxCell id="C-vyLk0tnHw3VtMMgP7b-5" value="id" style="shape=partialRectangle;overflow=hidden;connectable=0;fillColor=none;top=0;left=0;bottom=0;right=0;align=left;spacingLeft=6;fontStyle=5;" parent="C-vyLk0tnHw3VtMMgP7b-3" vertex="1">
          <mxGeometry x="30" width="220" height="30" as="geometry" />
        </mxCell>
        <mxCell id="C-vyLk0tnHw3VtMMgP7b-6" value="" style="shape=partialRectangle;collapsible=0;dropTarget=0;pointerEvents=0;fillColor=none;points=[[0,0.5],[1,0.5]];portConstraint=eastwest;top=0;left=0;right=0;bottom=0;" parent="C-vyLk0tnHw3VtMMgP7b-2" vertex="1">
          <mxGeometry y="60" width="250" height="25" as="geometry" />
        </mxCell>
        <mxCell id="C-vyLk0tnHw3VtMMgP7b-7" value="" style="shape=partialRectangle;overflow=hidden;connectable=0;fillColor=none;top=0;left=0;bottom=0;right=0;" parent="C-vyLk0tnHw3VtMMgP7b-6" vertex="1">
          <mxGeometry width="30" height="25" as="geometry" />
        </mxCell>
        <mxCell id="C-vyLk0tnHw3VtMMgP7b-8" value="nome" style="shape=partialRectangle;overflow=hidden;connectable=0;fillColor=none;top=0;left=0;bottom=0;right=0;align=left;spacingLeft=6;" parent="C-vyLk0tnHw3VtMMgP7b-6" vertex="1">
          <mxGeometry x="30" width="220" height="25" as="geometry" />
        </mxCell>
        <mxCell id="C-vyLk0tnHw3VtMMgP7b-9" value="" style="shape=partialRectangle;collapsible=0;dropTarget=0;pointerEvents=0;fillColor=none;points=[[0,0.5],[1,0.5]];portConstraint=eastwest;top=0;left=0;right=0;bottom=0;" parent="C-vyLk0tnHw3VtMMgP7b-2" vertex="1">
          <mxGeometry y="85" width="250" height="30" as="geometry" />
        </mxCell>
        <mxCell id="C-vyLk0tnHw3VtMMgP7b-10" value="" style="shape=partialRectangle;overflow=hidden;connectable=0;fillColor=none;top=0;left=0;bottom=0;right=0;" parent="C-vyLk0tnHw3VtMMgP7b-9" vertex="1">
          <mxGeometry width="30" height="30" as="geometry" />
        </mxCell>
        <mxCell id="C-vyLk0tnHw3VtMMgP7b-11" value="qtd_telas" style="shape=partialRectangle;overflow=hidden;connectable=0;fillColor=none;top=0;left=0;bottom=0;right=0;align=left;spacingLeft=6;" parent="C-vyLk0tnHw3VtMMgP7b-9" vertex="1">
          <mxGeometry x="30" width="220" height="30" as="geometry" />
        </mxCell>
        <mxCell id="XcwAVJcCN3Z1Kj0v-T99-72" value="" style="shape=partialRectangle;collapsible=0;dropTarget=0;pointerEvents=0;fillColor=none;points=[[0,0.5],[1,0.5]];portConstraint=eastwest;top=0;left=0;right=0;bottom=0;" vertex="1" parent="C-vyLk0tnHw3VtMMgP7b-2">
          <mxGeometry y="115" width="250" height="30" as="geometry" />
        </mxCell>
        <mxCell id="XcwAVJcCN3Z1Kj0v-T99-73" value="" style="shape=partialRectangle;overflow=hidden;connectable=0;fillColor=none;top=0;left=0;bottom=0;right=0;" vertex="1" parent="XcwAVJcCN3Z1Kj0v-T99-72">
          <mxGeometry width="30" height="30" as="geometry" />
        </mxCell>
        <mxCell id="XcwAVJcCN3Z1Kj0v-T99-74" value="entidade" style="shape=partialRectangle;overflow=hidden;connectable=0;fillColor=none;top=0;left=0;bottom=0;right=0;align=left;spacingLeft=6;" vertex="1" parent="XcwAVJcCN3Z1Kj0v-T99-72">
          <mxGeometry x="30" width="220" height="30" as="geometry" />
        </mxCell>
        <mxCell id="XcwAVJcCN3Z1Kj0v-T99-3" value="Tela" style="shape=table;startSize=30;container=1;collapsible=1;childLayout=tableLayout;fixedRows=1;rowLines=0;fontStyle=1;align=center;resizeLast=1;" vertex="1" parent="1">
          <mxGeometry x="50" y="200" width="180" height="310" as="geometry" />
        </mxCell>
        <mxCell id="XcwAVJcCN3Z1Kj0v-T99-4" value="" style="shape=partialRectangle;collapsible=0;dropTarget=0;pointerEvents=0;fillColor=none;top=0;left=0;bottom=1;right=0;points=[[0,0.5],[1,0.5]];portConstraint=eastwest;" vertex="1" parent="XcwAVJcCN3Z1Kj0v-T99-3">
          <mxGeometry y="30" width="180" height="30" as="geometry" />
        </mxCell>
        <mxCell id="XcwAVJcCN3Z1Kj0v-T99-5" value="PK" style="shape=partialRectangle;connectable=0;fillColor=none;top=0;left=0;bottom=0;right=0;fontStyle=1;overflow=hidden;" vertex="1" parent="XcwAVJcCN3Z1Kj0v-T99-4">
          <mxGeometry width="30" height="30" as="geometry" />
        </mxCell>
        <mxCell id="XcwAVJcCN3Z1Kj0v-T99-6" value="id" style="shape=partialRectangle;connectable=0;fillColor=none;top=0;left=0;bottom=0;right=0;align=left;spacingLeft=6;fontStyle=5;overflow=hidden;" vertex="1" parent="XcwAVJcCN3Z1Kj0v-T99-4">
          <mxGeometry x="30" width="150" height="30" as="geometry" />
        </mxCell>
        <mxCell id="XcwAVJcCN3Z1Kj0v-T99-7" value="" style="shape=partialRectangle;collapsible=0;dropTarget=0;pointerEvents=0;fillColor=none;top=0;left=0;bottom=0;right=0;points=[[0,0.5],[1,0.5]];portConstraint=eastwest;" vertex="1" parent="XcwAVJcCN3Z1Kj0v-T99-3">
          <mxGeometry y="60" width="180" height="30" as="geometry" />
        </mxCell>
        <mxCell id="XcwAVJcCN3Z1Kj0v-T99-8" value="" style="shape=partialRectangle;connectable=0;fillColor=none;top=0;left=0;bottom=0;right=0;editable=1;overflow=hidden;" vertex="1" parent="XcwAVJcCN3Z1Kj0v-T99-7">
          <mxGeometry width="30" height="30" as="geometry" />
        </mxCell>
        <mxCell id="XcwAVJcCN3Z1Kj0v-T99-9" value="name" style="shape=partialRectangle;connectable=0;fillColor=none;top=0;left=0;bottom=0;right=0;align=left;spacingLeft=6;overflow=hidden;" vertex="1" parent="XcwAVJcCN3Z1Kj0v-T99-7">
          <mxGeometry x="30" width="150" height="30" as="geometry" />
        </mxCell>
        <mxCell id="XcwAVJcCN3Z1Kj0v-T99-10" value="" style="shape=partialRectangle;collapsible=0;dropTarget=0;pointerEvents=0;fillColor=none;top=0;left=0;bottom=0;right=0;points=[[0,0.5],[1,0.5]];portConstraint=eastwest;" vertex="1" parent="XcwAVJcCN3Z1Kj0v-T99-3">
          <mxGeometry y="90" width="180" height="30" as="geometry" />
        </mxCell>
        <mxCell id="XcwAVJcCN3Z1Kj0v-T99-11" value="" style="shape=partialRectangle;connectable=0;fillColor=none;top=0;left=0;bottom=0;right=0;editable=1;overflow=hidden;" vertex="1" parent="XcwAVJcCN3Z1Kj0v-T99-10">
          <mxGeometry width="30" height="30" as="geometry" />
        </mxCell>
        <mxCell id="XcwAVJcCN3Z1Kj0v-T99-12" value="caption" style="shape=partialRectangle;connectable=0;fillColor=none;top=0;left=0;bottom=0;right=0;align=left;spacingLeft=6;overflow=hidden;" vertex="1" parent="XcwAVJcCN3Z1Kj0v-T99-10">
          <mxGeometry x="30" width="150" height="30" as="geometry" />
        </mxCell>
        <mxCell id="XcwAVJcCN3Z1Kj0v-T99-13" value="" style="shape=partialRectangle;collapsible=0;dropTarget=0;pointerEvents=0;fillColor=none;top=0;left=0;bottom=0;right=0;points=[[0,0.5],[1,0.5]];portConstraint=eastwest;" vertex="1" parent="XcwAVJcCN3Z1Kj0v-T99-3">
          <mxGeometry y="120" width="180" height="30" as="geometry" />
        </mxCell>
        <mxCell id="XcwAVJcCN3Z1Kj0v-T99-14" value="" style="shape=partialRectangle;connectable=0;fillColor=none;top=0;left=0;bottom=0;right=0;editable=1;overflow=hidden;" vertex="1" parent="XcwAVJcCN3Z1Kj0v-T99-13">
          <mxGeometry width="30" height="30" as="geometry" />
        </mxCell>
        <mxCell id="XcwAVJcCN3Z1Kj0v-T99-15" value="caminho" style="shape=partialRectangle;connectable=0;fillColor=none;top=0;left=0;bottom=0;right=0;align=left;spacingLeft=6;overflow=hidden;" vertex="1" parent="XcwAVJcCN3Z1Kj0v-T99-13">
          <mxGeometry x="30" width="150" height="30" as="geometry" />
        </mxCell>
        <mxCell id="XcwAVJcCN3Z1Kj0v-T99-34" value="" style="shape=partialRectangle;collapsible=0;dropTarget=0;pointerEvents=0;fillColor=none;top=0;left=0;bottom=0;right=0;points=[[0,0.5],[1,0.5]];portConstraint=eastwest;" vertex="1" parent="XcwAVJcCN3Z1Kj0v-T99-3">
          <mxGeometry y="150" width="180" height="30" as="geometry" />
        </mxCell>
        <mxCell id="XcwAVJcCN3Z1Kj0v-T99-35" value="" style="shape=partialRectangle;connectable=0;fillColor=none;top=0;left=0;bottom=0;right=0;editable=1;overflow=hidden;" vertex="1" parent="XcwAVJcCN3Z1Kj0v-T99-34">
          <mxGeometry width="30" height="30" as="geometry" />
        </mxCell>
        <mxCell id="XcwAVJcCN3Z1Kj0v-T99-36" value="menu" style="shape=partialRectangle;connectable=0;fillColor=none;top=0;left=0;bottom=0;right=0;align=left;spacingLeft=6;overflow=hidden;" vertex="1" parent="XcwAVJcCN3Z1Kj0v-T99-34">
          <mxGeometry x="30" width="150" height="30" as="geometry" />
        </mxCell>
        <mxCell id="XcwAVJcCN3Z1Kj0v-T99-38" value="" style="shape=partialRectangle;collapsible=0;dropTarget=0;pointerEvents=0;fillColor=none;top=0;left=0;bottom=0;right=0;points=[[0,0.5],[1,0.5]];portConstraint=eastwest;" vertex="1" parent="XcwAVJcCN3Z1Kj0v-T99-3">
          <mxGeometry y="180" width="180" height="30" as="geometry" />
        </mxCell>
        <mxCell id="XcwAVJcCN3Z1Kj0v-T99-39" value="" style="shape=partialRectangle;connectable=0;fillColor=none;top=0;left=0;bottom=0;right=0;editable=1;overflow=hidden;" vertex="1" parent="XcwAVJcCN3Z1Kj0v-T99-38">
          <mxGeometry width="30" height="30" as="geometry" />
        </mxCell>
        <mxCell id="XcwAVJcCN3Z1Kj0v-T99-40" value="submenu" style="shape=partialRectangle;connectable=0;fillColor=none;top=0;left=0;bottom=0;right=0;align=left;spacingLeft=6;overflow=hidden;" vertex="1" parent="XcwAVJcCN3Z1Kj0v-T99-38">
          <mxGeometry x="30" width="150" height="30" as="geometry" />
        </mxCell>
        <mxCell id="XcwAVJcCN3Z1Kj0v-T99-42" value="" style="shape=partialRectangle;collapsible=0;dropTarget=0;pointerEvents=0;fillColor=none;top=0;left=0;bottom=0;right=0;points=[[0,0.5],[1,0.5]];portConstraint=eastwest;" vertex="1" parent="XcwAVJcCN3Z1Kj0v-T99-3">
          <mxGeometry y="210" width="180" height="30" as="geometry" />
        </mxCell>
        <mxCell id="XcwAVJcCN3Z1Kj0v-T99-43" value="" style="shape=partialRectangle;connectable=0;fillColor=none;top=0;left=0;bottom=0;right=0;editable=1;overflow=hidden;" vertex="1" parent="XcwAVJcCN3Z1Kj0v-T99-42">
          <mxGeometry width="30" height="30" as="geometry" />
        </mxCell>
        <mxCell id="XcwAVJcCN3Z1Kj0v-T99-44" value="pré-requisito" style="shape=partialRectangle;connectable=0;fillColor=none;top=0;left=0;bottom=0;right=0;align=left;spacingLeft=6;overflow=hidden;" vertex="1" parent="XcwAVJcCN3Z1Kj0v-T99-42">
          <mxGeometry x="30" width="150" height="30" as="geometry" />
        </mxCell>
        <mxCell id="XcwAVJcCN3Z1Kj0v-T99-45" value="" style="shape=partialRectangle;collapsible=0;dropTarget=0;pointerEvents=0;fillColor=none;top=0;left=0;bottom=0;right=0;points=[[0,0.5],[1,0.5]];portConstraint=eastwest;" vertex="1" parent="XcwAVJcCN3Z1Kj0v-T99-3">
          <mxGeometry y="240" width="180" height="30" as="geometry" />
        </mxCell>
        <mxCell id="XcwAVJcCN3Z1Kj0v-T99-46" value="" style="shape=partialRectangle;connectable=0;fillColor=none;top=0;left=0;bottom=0;right=0;editable=1;overflow=hidden;" vertex="1" parent="XcwAVJcCN3Z1Kj0v-T99-45">
          <mxGeometry width="30" height="30" as="geometry" />
        </mxCell>
        <mxCell id="XcwAVJcCN3Z1Kj0v-T99-47" value="telas_influenciadas" style="shape=partialRectangle;connectable=0;fillColor=none;top=0;left=0;bottom=0;right=0;align=left;spacingLeft=6;overflow=hidden;" vertex="1" parent="XcwAVJcCN3Z1Kj0v-T99-45">
          <mxGeometry x="30" width="150" height="30" as="geometry" />
        </mxCell>
        <mxCell id="XcwAVJcCN3Z1Kj0v-T99-49" value="" style="shape=partialRectangle;collapsible=0;dropTarget=0;pointerEvents=0;fillColor=none;top=0;left=0;bottom=0;right=0;points=[[0,0.5],[1,0.5]];portConstraint=eastwest;" vertex="1" parent="XcwAVJcCN3Z1Kj0v-T99-3">
          <mxGeometry y="270" width="180" height="30" as="geometry" />
        </mxCell>
        <mxCell id="XcwAVJcCN3Z1Kj0v-T99-50" value="" style="shape=partialRectangle;connectable=0;fillColor=none;top=0;left=0;bottom=0;right=0;editable=1;overflow=hidden;" vertex="1" parent="XcwAVJcCN3Z1Kj0v-T99-49">
          <mxGeometry width="30" height="30" as="geometry" />
        </mxCell>
        <mxCell id="XcwAVJcCN3Z1Kj0v-T99-51" value="possivel_desenvolver" style="shape=partialRectangle;connectable=0;fillColor=none;top=0;left=0;bottom=0;right=0;align=left;spacingLeft=6;overflow=hidden;" vertex="1" parent="XcwAVJcCN3Z1Kj0v-T99-49">
          <mxGeometry x="30" width="150" height="30" as="geometry" />
        </mxCell>
        <mxCell id="XcwAVJcCN3Z1Kj0v-T99-41" value="Caminho&lt;br&gt;{menu, submenu, caption}" style="shape=note;size=20;whiteSpace=wrap;html=1;" vertex="1" parent="1">
          <mxGeometry x="30" y="60" width="100" height="100" as="geometry" />
        </mxCell>
        <mxCell id="XcwAVJcCN3Z1Kj0v-T99-48" value="Telas_Influenciadas&lt;br&gt;&lt;br&gt;o dado da tela vai ir para qual outra" style="shape=note;size=20;whiteSpace=wrap;html=1;" vertex="1" parent="1">
          <mxGeometry x="140" y="60" width="120" height="100" as="geometry" />
        </mxCell>
        <mxCell id="XcwAVJcCN3Z1Kj0v-T99-52" value="Folha" style="shape=table;startSize=30;container=1;collapsible=1;childLayout=tableLayout;fixedRows=1;rowLines=0;fontStyle=1;align=center;resizeLast=1;" vertex="1" parent="1">
          <mxGeometry x="560" y="510" width="250" height="180" as="geometry" />
        </mxCell>
        <mxCell id="XcwAVJcCN3Z1Kj0v-T99-53" value="" style="shape=partialRectangle;collapsible=0;dropTarget=0;pointerEvents=0;fillColor=none;top=0;left=0;bottom=1;right=0;points=[[0,0.5],[1,0.5]];portConstraint=eastwest;" vertex="1" parent="XcwAVJcCN3Z1Kj0v-T99-52">
          <mxGeometry y="30" width="250" height="30" as="geometry" />
        </mxCell>
        <mxCell id="XcwAVJcCN3Z1Kj0v-T99-54" value="PK,FK" style="shape=partialRectangle;connectable=0;fillColor=none;top=0;left=0;bottom=0;right=0;fontStyle=1;overflow=hidden;" vertex="1" parent="XcwAVJcCN3Z1Kj0v-T99-53">
          <mxGeometry width="40" height="30" as="geometry" />
        </mxCell>
        <mxCell id="XcwAVJcCN3Z1Kj0v-T99-55" value="id" style="shape=partialRectangle;connectable=0;fillColor=none;top=0;left=0;bottom=0;right=0;align=left;spacingLeft=6;fontStyle=5;overflow=hidden;" vertex="1" parent="XcwAVJcCN3Z1Kj0v-T99-53">
          <mxGeometry x="40" width="210" height="30" as="geometry" />
        </mxCell>
        <mxCell id="XcwAVJcCN3Z1Kj0v-T99-56" value="" style="shape=partialRectangle;collapsible=0;dropTarget=0;pointerEvents=0;fillColor=none;top=0;left=0;bottom=0;right=0;points=[[0,0.5],[1,0.5]];portConstraint=eastwest;" vertex="1" parent="XcwAVJcCN3Z1Kj0v-T99-52">
          <mxGeometry y="60" width="250" height="30" as="geometry" />
        </mxCell>
        <mxCell id="XcwAVJcCN3Z1Kj0v-T99-57" value="" style="shape=partialRectangle;connectable=0;fillColor=none;top=0;left=0;bottom=0;right=0;editable=1;overflow=hidden;" vertex="1" parent="XcwAVJcCN3Z1Kj0v-T99-56">
          <mxGeometry width="40" height="30" as="geometry" />
        </mxCell>
        <mxCell id="XcwAVJcCN3Z1Kj0v-T99-58" value="tipo_folha" style="shape=partialRectangle;connectable=0;fillColor=none;top=0;left=0;bottom=0;right=0;align=left;spacingLeft=6;overflow=hidden;" vertex="1" parent="XcwAVJcCN3Z1Kj0v-T99-56">
          <mxGeometry x="40" width="210" height="30" as="geometry" />
        </mxCell>
        <mxCell id="XcwAVJcCN3Z1Kj0v-T99-59" value="" style="shape=partialRectangle;collapsible=0;dropTarget=0;pointerEvents=0;fillColor=none;top=0;left=0;bottom=0;right=0;points=[[0,0.5],[1,0.5]];portConstraint=eastwest;" vertex="1" parent="XcwAVJcCN3Z1Kj0v-T99-52">
          <mxGeometry y="90" width="250" height="30" as="geometry" />
        </mxCell>
        <mxCell id="XcwAVJcCN3Z1Kj0v-T99-60" value="" style="shape=partialRectangle;connectable=0;fillColor=none;top=0;left=0;bottom=0;right=0;editable=1;overflow=hidden;" vertex="1" parent="XcwAVJcCN3Z1Kj0v-T99-59">
          <mxGeometry width="40" height="30" as="geometry" />
        </mxCell>
        <mxCell id="XcwAVJcCN3Z1Kj0v-T99-61" value="folha_aberta" style="shape=partialRectangle;connectable=0;fillColor=none;top=0;left=0;bottom=0;right=0;align=left;spacingLeft=6;overflow=hidden;" vertex="1" parent="XcwAVJcCN3Z1Kj0v-T99-59">
          <mxGeometry x="40" width="210" height="30" as="geometry" />
        </mxCell>
        <mxCell id="XcwAVJcCN3Z1Kj0v-T99-62" value="" style="shape=partialRectangle;collapsible=0;dropTarget=0;pointerEvents=0;fillColor=none;top=0;left=0;bottom=0;right=0;points=[[0,0.5],[1,0.5]];portConstraint=eastwest;" vertex="1" parent="XcwAVJcCN3Z1Kj0v-T99-52">
          <mxGeometry y="120" width="250" height="30" as="geometry" />
        </mxCell>
        <mxCell id="XcwAVJcCN3Z1Kj0v-T99-63" value="" style="shape=partialRectangle;connectable=0;fillColor=none;top=0;left=0;bottom=0;right=0;editable=1;overflow=hidden;" vertex="1" parent="XcwAVJcCN3Z1Kj0v-T99-62">
          <mxGeometry width="40" height="30" as="geometry" />
        </mxCell>
        <mxCell id="XcwAVJcCN3Z1Kj0v-T99-64" value="folha_fechada" style="shape=partialRectangle;connectable=0;fillColor=none;top=0;left=0;bottom=0;right=0;align=left;spacingLeft=6;overflow=hidden;" vertex="1" parent="XcwAVJcCN3Z1Kj0v-T99-62">
          <mxGeometry x="40" width="210" height="30" as="geometry" />
        </mxCell>
        <mxCell id="XcwAVJcCN3Z1Kj0v-T99-69" value="" style="shape=partialRectangle;collapsible=0;dropTarget=0;pointerEvents=0;fillColor=none;top=0;left=0;bottom=0;right=0;points=[[0,0.5],[1,0.5]];portConstraint=eastwest;" vertex="1" parent="XcwAVJcCN3Z1Kj0v-T99-52">
          <mxGeometry y="150" width="250" height="30" as="geometry" />
        </mxCell>
        <mxCell id="XcwAVJcCN3Z1Kj0v-T99-70" value="" style="shape=partialRectangle;connectable=0;fillColor=none;top=0;left=0;bottom=0;right=0;editable=1;overflow=hidden;" vertex="1" parent="XcwAVJcCN3Z1Kj0v-T99-69">
          <mxGeometry width="40" height="30" as="geometry" />
        </mxCell>
        <mxCell id="XcwAVJcCN3Z1Kj0v-T99-71" value="" style="shape=partialRectangle;connectable=0;fillColor=none;top=0;left=0;bottom=0;right=0;align=left;spacingLeft=6;overflow=hidden;" vertex="1" parent="XcwAVJcCN3Z1Kj0v-T99-69">
          <mxGeometry x="40" width="210" height="30" as="geometry" />
        </mxCell>
        <mxCell id="XcwAVJcCN3Z1Kj0v-T99-80" value="" style="endArrow=none;html=1;rounded=0;entryX=0;entryY=0.767;entryDx=0;entryDy=0;entryPerimeter=0;exitX=1;exitY=0.5;exitDx=0;exitDy=0;startArrow=none;" edge="1" parent="1" source="XcwAVJcCN3Z1Kj0v-T99-17" target="C-vyLk0tnHw3VtMMgP7b-9">
          <mxGeometry relative="1" as="geometry">
            <mxPoint x="300" y="360" as="sourcePoint" />
            <mxPoint x="460" y="360" as="targetPoint" />
          </mxGeometry>
        </mxCell>
        <mxCell id="XcwAVJcCN3Z1Kj0v-T99-17" value="contém" style="shape=rhombus;perimeter=rhombusPerimeter;whiteSpace=wrap;html=1;align=center;" vertex="1" parent="1">
          <mxGeometry x="320" y="305" width="120" height="60" as="geometry" />
        </mxCell>
        <mxCell id="XcwAVJcCN3Z1Kj0v-T99-81" value="" style="endArrow=none;html=1;rounded=0;entryX=0;entryY=0.5;entryDx=0;entryDy=0;exitX=1;exitY=0.5;exitDx=0;exitDy=0;" edge="1" parent="1" source="XcwAVJcCN3Z1Kj0v-T99-13" target="XcwAVJcCN3Z1Kj0v-T99-17">
          <mxGeometry relative="1" as="geometry">
            <mxPoint x="230" y="335" as="sourcePoint" />
            <mxPoint x="520" y="328.01" as="targetPoint" />
          </mxGeometry>
        </mxCell>
        <mxCell id="XcwAVJcCN3Z1Kj0v-T99-82" value="N" style="text;strokeColor=none;fillColor=none;spacingLeft=4;spacingRight=4;overflow=hidden;rotatable=0;points=[[0,0.5],[1,0.5]];portConstraint=eastwest;fontSize=12;" vertex="1" parent="1">
          <mxGeometry x="510" y="310" width="40" height="30" as="geometry" />
        </mxCell>
        <mxCell id="XcwAVJcCN3Z1Kj0v-T99-83" value="1" style="text;strokeColor=none;fillColor=none;spacingLeft=4;spacingRight=4;overflow=hidden;rotatable=0;points=[[0,0.5],[1,0.5]];portConstraint=eastwest;fontSize=12;" vertex="1" parent="1">
          <mxGeometry x="230" y="305" width="40" height="30" as="geometry" />
        </mxCell>
        <mxCell id="XcwAVJcCN3Z1Kj0v-T99-84" value="" style="edgeStyle=entityRelationEdgeStyle;fontSize=12;html=1;endArrow=ERmandOne;startArrow=ERmandOne;entryX=0.5;entryY=1;entryDx=0;entryDy=0;exitX=0.5;exitY=0;exitDx=0;exitDy=0;" edge="1" parent="1" source="XcwAVJcCN3Z1Kj0v-T99-52" target="C-vyLk0tnHw3VtMMgP7b-2">
          <mxGeometry width="100" height="100" relative="1" as="geometry">
            <mxPoint x="540" y="490" as="sourcePoint" />
            <mxPoint x="640" y="390" as="targetPoint" />
          </mxGeometry>
        </mxCell>
      </root>
    </mxGraphModel>
  </diagram>
</mxfile>
